<?xml version="1.0" encoding="UTF-8" standalone="no"?>
<!-- Uploaded to: SVG Repo, www.svgrepo.com, Generator: SVG Repo Mixer Tools -->

<svg
   fill="#000000"
   height="1200"
   width="800"
   version="1.1"
   id="Capa_1"
   viewBox="0 0 431.908 647.86149"
   xml:space="preserve"
   sodipodi:docname="evm.svg"
   inkscape:version="1.3.2 (091e20e, 2023-11-25)"
   xmlns:inkscape="http://www.inkscape.org/namespaces/inkscape"
   xmlns:sodipodi="http://sodipodi.sourceforge.net/DTD/sodipodi-0.dtd"
   xmlns="http://www.w3.org/2000/svg"
   xmlns:svg="http://www.w3.org/2000/svg"><defs
   id="defs2" /><sodipodi:namedview
   id="namedview2"
   pagecolor="#ffffff"
   bordercolor="#000000"
   borderopacity="0.25"
   inkscape:showpageshadow="2"
   inkscape:pageopacity="0.0"
   inkscape:pagecheckerboard="0"
   inkscape:deskcolor="#d1d1d1"
   inkscape:zoom="0.295"
   inkscape:cx="294.91525"
   inkscape:cy="576.27119"
   inkscape:window-width="1664"
   inkscape:window-height="857"
   inkscape:window-x="0"
   inkscape:window-y="25"
   inkscape:window-maximized="0"
   inkscape:current-layer="Capa_1" />
<g
   id="g2"
   transform="translate(0,115.29743)"
   style="fill:#5f5d9c;fill-opacity:1;stroke:none;stroke-opacity:1">
	<path
   d="m 423.908,152.051 c 4.418,0 8,-3.582 8,-8 0,-4.418 -3.582,-8 -8,-8 h -24.006 v -31.936 h 24.006 c 4.418,0 8,-3.582 8,-8 0,-4.418 -3.582,-8 -8,-8 H 399.902 V 71.996 c 0,-22.056 -17.944,-40 -40,-40 H 343.793 V 8 c 0,-4.418 -3.582,-8 -8,-8 -4.418,0 -8,3.582 -8,8 V 31.996 H 295.856 V 8 c 0,-4.418 -3.582,-8 -8,-8 -4.418,0 -8,3.582 -8,8 V 31.996 H 247.92 V 8 c 0,-4.418 -3.582,-8 -8,-8 -4.418,0 -8,3.582 -8,8 V 31.996 H 199.985 V 8 c 0,-4.418 -3.582,-8 -8,-8 -4.418,0 -8,3.582 -8,8 V 31.996 H 152.049 V 8 c 0,-4.418 -3.582,-8 -8,-8 -4.418,0 -8,3.582 -8,8 V 31.996 H 104.113 V 8 c 0,-4.418 -3.582,-8 -8,-8 -4.418,0 -8,3.582 -8,8 V 31.996 H 71.985 c -22.056,0 -40,17.944 -40,40 V 88.115 H 8 c -4.418,0 -8,3.582 -8,8 0,4.418 3.582,8 8,8 h 23.985 v 31.936 H 8 c -4.418,0 -8,3.582 -8,8 0,4.418 3.582,8 8,8 h 23.985 v 31.936 H 8 c -4.418,0 -8,3.582 -8,8 0,4.418 3.582,8 8,8 h 23.985 v 31.935 H 8 c -4.418,0 -8,3.582 -8,8 0,4.418 3.582,8 8,8 h 23.985 v 31.936 H 8 c -4.418,0 -8,3.582 -8,8 0,4.418 3.582,8 8,8 h 23.985 v 31.936 H 8 c -4.418,0 -8,3.582 -8,8 0,4.418 3.582,8 8,8 h 23.985 v 16.119 c 0,22.056 17.944,40 40,40 h 16.128 v 23.995 c 0,4.418 3.582,8 8,8 4.418,0 8,-3.582 8,-8 v -23.995 h 31.936 v 23.995 c 0,4.418 3.582,8 8,8 4.418,0 8,-3.582 8,-8 v -23.995 h 31.936 v 23.995 c 0,4.418 3.582,8 8,8 4.418,0 8,-3.582 8,-8 v -23.995 h 31.935 v 23.995 c 0,4.418 3.582,8 8,8 4.418,0 8,-3.582 8,-8 v -23.995 h 31.936 v 23.995 c 0,4.418 3.582,8 8,8 4.418,0 8,-3.582 8,-8 v -23.995 h 31.937 v 23.995 c 0,4.418 3.582,8 8,8 4.418,0 8,-3.582 8,-8 v -23.995 h 16.109 c 22.056,0 40,-17.944 40,-40 v -16.119 h 24.006 c 4.418,0 8,-3.582 8,-8 0,-4.418 -3.582,-8 -8,-8 h -24.006 v -31.936 h 24.006 c 4.418,0 8,-3.582 8,-8 0,-4.418 -3.582,-8 -8,-8 h -24.006 v -31.936 h 24.006 c 4.418,0 8,-3.582 8,-8 0,-4.418 -3.582,-8 -8,-8 h -24.006 v -31.935 h 24.006 c 4.418,0 8,-3.582 8,-8 0,-4.418 -3.582,-8 -8,-8 h -24.006 v -31.936 z m -40.006,207.861 c 0,13.233 -10.767,24 -24,24 H 71.985 c -13.233,0 -24,-10.767 -24,-24 V 71.996 c 0,-13.234 10.767,-24 24,-24 h 287.917 c 13.233,0 24,10.766 24,24 z"
   id="path1"
   style="fill:#5f5d9c;fill-opacity:1;stroke:none;stroke-opacity:1" />
	<path
   d="M 343.777,72.121 H 88.11 c -8.822,0 -16,7.177 -16,16 v 255.667 c 0,8.822 7.178,16 16,16 h 255.667 c 8.822,0 16,-7.178 16,-16 V 88.121 c 0,-8.823 -7.178,-16 -16,-16 z M 88.11,343.787 V 88.121 h 255.667 l 0.002,255.667 H 88.11 Z"
   id="path2"
   style="fill:#5f5d9c;fill-opacity:1;stroke:none;stroke-opacity:1" />
</g>
<text
   xml:space="preserve"
   style="font-style:normal;font-variant:normal;font-weight:normal;font-stretch:normal;font-size:109.179px;font-family:Helvetica;-inkscape-font-specification:'Helvetica, Normal';font-variant-ligatures:normal;font-variant-caps:normal;font-variant-numeric:normal;font-variant-east-asian:normal;fill:#5f5d9c;fill-opacity:1;stroke:#5f5d9c;stroke-width:5.02093;stroke-dasharray:none;stroke-opacity:1"
   x="105.63599"
   y="360.23828"
   id="text2"
   transform="scale(0.95976465,1.0419221)"><tspan
     sodipodi:role="line"
     id="tspan2"
     style="font-style:normal;font-variant:normal;font-weight:normal;font-stretch:normal;font-size:109.179px;font-family:Helvetica;-inkscape-font-specification:'Helvetica, Normal';font-variant-ligatures:normal;font-variant-caps:normal;font-variant-numeric:normal;font-variant-east-asian:normal;fill:#5f5d9c;fill-opacity:1;stroke:#5f5d9c;stroke-width:5.02093;stroke-dasharray:none;stroke-opacity:1"
     x="105.63599"
     y="360.23828">EVM</tspan></text></svg>
